<?xml version="1.0" standalone="no"?>
<!DOCTYPE svg PUBLIC "-//W3C//DTD SVG 20010904//EN"
 "http://www.w3.org/TR/2001/REC-SVG-20010904/DTD/svg10.dtd">
<svg version="1.0" xmlns="http://www.w3.org/2000/svg"
 width="2048.000000pt" height="2048.000000pt" viewBox="0 0 2048.000000 2048.000000"
 preserveAspectRatio="xMidYMid meet">
<metadata>
Created by potrace 1.11, written by Peter Selinger 2001-2013
</metadata>
<g transform="translate(0.000000,2048.000000) scale(0.100000,-0.100000)"
fill="#000000" stroke="none">
<path d="M14230 20458 c-25 -5 -61 -10 -80 -13 -41 -5 -56 -9 -127 -29 -29 -8
-53 -12 -53 -9 0 3 -7 0 -15 -7 -8 -7 -15 -10 -15 -7 0 3 -24 -2 -52 -12 -58
-20 -64 -22 -93 -29 -26 -7 -296 -141 -363 -181 -29 -17 -59 -31 -67 -31 -8 0
-15 -4 -15 -9 0 -5 -9 -11 -19 -14 -23 -6 -59 -79 -101 -207 -20 -61 -65 -179
-85 -225 -7 -16 -18 -43 -24 -60 -6 -16 -16 -43 -22 -60 -7 -16 -13 -32 -13
-35 -2 -7 -25 -68 -41 -105 -7 -16 -16 -41 -20 -55 -4 -14 -13 -38 -20 -55 -8
-16 -32 -79 -55 -140 -85 -224 -210 -548 -235 -610 -5 -11 -9 -22 -10 -25 -1
-3 -5 -14 -10 -25 -4 -11 -21 -54 -37 -95 -16 -41 -33 -84 -38 -95 -5 -11 -19
-45 -30 -75 -11 -30 -24 -64 -29 -75 -10 -23 -16 -39 -105 -265 -35 -91 -85
-219 -110 -285 -26 -66 -50 -129 -55 -140 -5 -11 -21 -51 -36 -90 -15 -38 -31
-79 -35 -90 -22 -51 -61 -151 -64 -160 -4 -20 -59 -160 -66 -170 -4 -5 -11
-23 -15 -40 -10 -36 -10 -35 -20 -60 -4 -11 -17 -42 -27 -70 -10 -27 -23 -59
-28 -70 -5 -11 -17 -45 -28 -75 -11 -30 -26 -68 -33 -85 -6 -16 -14 -39 -16
-49 -2 -11 -7 -24 -11 -30 -5 -6 -17 -33 -27 -61 -9 -27 -23 -63 -30 -80 -7
-16 -36 -91 -65 -165 -29 -74 -76 -196 -105 -270 -29 -74 -69 -178 -89 -230
-20 -52 -42 -106 -48 -120 -6 -14 -12 -27 -12 -30 -1 -3 -6 -18 -13 -35 -6
-16 -32 -82 -56 -145 -25 -63 -77 -198 -116 -300 -40 -102 -76 -194 -80 -205
-10 -22 -24 -57 -25 -65 -4 -13 -101 -260 -117 -297 -11 -24 -19 -45 -19 -48
0 -5 -225 -587 -240 -620 -5 -11 -20 -49 -33 -85 -14 -36 -68 -175 -120 -310
-52 -135 -166 -427 -252 -650 -179 -463 -291 -750 -375 -965 -74 -188 -119
-305 -260 -670 -62 -159 -118 -303 -125 -320 -6 -16 -29 -75 -50 -130 -20 -55
-41 -109 -45 -120 -5 -11 -20 -49 -33 -85 -73 -191 -119 -308 -132 -337 -8
-17 -15 -34 -15 -38 0 -7 -95 -253 -120 -310 -5 -11 -23 -58 -40 -105 -18 -47
-38 -98 -45 -115 -7 -16 -43 -109 -80 -205 -37 -96 -91 -236 -120 -310 -29
-74 -83 -211 -119 -305 -37 -93 -70 -179 -75 -190 -5 -11 -46 -117 -92 -235
-45 -118 -85 -219 -88 -225 -3 -5 -6 -12 -6 -15 0 -3 -22 -59 -48 -125 -25
-66 -58 -149 -71 -185 l-25 -65 4 65 c3 36 7 106 10 155 3 50 7 126 10 170 3
44 7 112 9 150 3 39 7 113 11 165 3 52 7 124 10 160 3 59 8 131 20 295 2 33 7
103 10 155 3 52 8 124 11 160 2 36 7 103 9 150 3 47 7 108 10 135 2 28 7 95
11 150 8 123 9 130 29 410 2 33 7 96 10 140 3 44 7 107 10 140 3 33 7 92 10
130 3 39 7 102 10 140 3 39 8 97 10 130 7 110 17 200 21 207 3 5 0 8 -6 8 -6
0 -8 4 -5 10 6 10 9 35 20 180 4 47 8 103 10 125 2 22 6 76 10 120 3 44 7 100
9 125 3 25 8 86 11 135 4 50 9 110 11 135 1 25 5 78 8 119 3 41 8 104 11 140
3 36 8 95 10 131 3 36 8 92 10 125 3 33 8 92 10 130 3 39 7 95 10 125 2 30 6
91 10 135 3 44 8 114 11 155 3 41 7 93 9 115 7 101 16 224 20 265 2 25 6 83
10 130 3 47 8 110 10 140 3 30 7 91 10 135 3 44 8 105 10 135 3 30 7 84 10
120 3 36 7 88 9 115 9 99 16 188 31 388 2 34 7 100 11 147 3 47 8 105 9 130
10 138 17 240 20 275 6 58 15 196 21 300 2 50 6 113 9 140 2 28 7 91 10 140 4
50 8 110 11 135 2 25 6 83 9 130 3 47 7 108 10 135 2 28 7 93 11 145 9 141 11
157 18 169 4 6 2 11 -4 11 -6 0 -9 4 -6 8 6 9 15 115 21 226 2 39 6 99 10 135
3 36 8 98 10 136 2 39 6 97 9 130 8 94 17 204 21 275 3 36 7 94 10 130 10 130
15 187 20 265 3 44 8 108 11 142 3 35 7 86 9 115 5 73 14 201 20 273 2 33 7
101 10 150 4 50 8 110 11 135 2 25 6 81 9 125 3 44 8 105 10 135 3 30 8 93 10
140 3 47 8 114 10 150 5 64 9 114 20 275 3 44 8 116 11 160 3 44 7 105 9 135
2 30 4 55 5 55 1 0 3 22 5 49 2 28 7 70 11 95 11 77 11 95 2 113 -5 12 2 42
23 95 33 82 43 171 26 214 -6 13 -11 29 -13 36 -7 34 -93 120 -149 149 -19 10
-72 29 -110 41 -25 7 -140 32 -173 37 -20 3 -48 8 -61 10 -123 26 -905 27
-1086 1 -16 -2 -50 -7 -75 -10 -39 -4 -124 -20 -155 -28 -119 -33 -285 -143
-380 -252 -27 -32 -60 -70 -73 -84 -29 -34 -126 -196 -153 -255 -11 -26 -18
-59 -16 -74 2 -15 0 -54 -5 -87 -10 -71 -15 -114 -23 -215 -3 -41 -8 -95 -10
-120 -5 -63 -17 -282 -30 -545 -3 -71 -8 -166 -10 -210 -5 -75 -12 -211 -20
-385 -2 -41 -6 -129 -9 -195 -3 -66 -8 -151 -11 -190 -2 -38 -7 -124 -10 -190
-3 -66 -8 -160 -11 -210 -6 -98 -11 -196 -19 -380 -6 -136 -14 -317 -19 -418
-2 -37 -6 -71 -9 -74 -4 -3 -2 -13 3 -23 5 -10 7 -20 3 -23 -3 -4 -7 -43 -8
-89 -5 -119 -15 -341 -20 -423 -2 -38 -7 -128 -10 -200 -3 -71 -8 -166 -10
-210 -2 -44 -6 -134 -10 -200 -3 -66 -8 -174 -11 -240 -4 -66 -7 -139 -7 -162
0 -24 -5 -43 -10 -43 -6 0 -6 -5 -1 -12 5 -7 8 -24 7 -38 -2 -30 -11 -203 -18
-365 -2 -66 -7 -169 -10 -230 -3 -60 -8 -148 -10 -195 -2 -47 -7 -138 -10
-204 -3 -65 -8 -164 -10 -220 -3 -55 -7 -153 -10 -216 -3 -63 -8 -160 -10
-215 -2 -55 -7 -147 -9 -205 -3 -58 -8 -159 -11 -225 -3 -66 -8 -163 -10 -215
-9 -179 -15 -325 -20 -440 -3 -63 -7 -155 -10 -205 -5 -109 -17 -380 -18 -452
-1 -29 -5 -53 -10 -53 -4 0 -3 -8 2 -19 6 -10 8 -21 5 -23 -3 -3 -7 -63 -10
-134 -7 -181 -12 -299 -14 -299 0 0 -3 -56 -5 -125 -4 -123 -10 -248 -20 -465
-3 -60 -8 -159 -10 -220 -3 -60 -7 -155 -10 -210 -7 -162 -15 -332 -20 -450
-8 -195 -19 -432 -30 -665 -3 -52 -7 -151 -10 -220 -3 -69 -7 -165 -10 -215
-4 -86 -13 -290 -20 -475 -2 -47 -4 -85 -5 -85 -1 0 -3 -43 -5 -95 -3 -89 -9
-215 -20 -455 -3 -55 -7 -156 -10 -225 -3 -69 -8 -163 -10 -210 -2 -47 -6
-141 -9 -210 -3 -69 -8 -179 -11 -245 -12 -241 -15 -312 -20 -415 -2 -58 -7
-161 -10 -230 -3 -69 -8 -168 -10 -220 -2 -52 -7 -149 -10 -215 -3 -66 -8
-169 -10 -230 -3 -60 -7 -153 -10 -205 -11 -238 -17 -367 -29 -670 -6 -126
-14 -321 -21 -485 -6 -123 -12 -260 -19 -465 -5 -121 -13 -296 -21 -470 -5
-98 -11 -230 -20 -425 -14 -322 -17 -392 -20 -490 -2 -60 -6 -166 -10 -235
-12 -218 -17 -512 -11 -604 12 -159 37 -233 108 -316 54 -63 244 -190 285
-190 7 0 21 -4 31 -9 51 -26 251 -35 382 -17 19 3 87 7 150 11 63 3 133 8 155
10 22 3 63 7 90 10 28 3 88 7 135 10 47 3 103 8 125 11 22 3 54 8 70 10 90 13
193 38 213 50 13 8 28 27 35 42 6 15 25 41 42 58 37 38 75 83 73 87 -4 8 15
47 24 47 6 0 9 3 5 6 -3 4 0 23 8 43 40 104 54 289 29 383 -7 27 -12 49 -12
51 -1 23 -19 60 -34 68 -17 9 -19 18 -14 67 3 31 9 88 12 127 8 88 8 88 17
102 4 6 3 14 -3 18 -6 4 -8 10 -6 14 3 4 8 38 12 76 3 39 8 81 9 95 1 14 6 61
10 105 3 44 9 103 11 130 7 72 12 128 19 230 3 50 8 108 10 130 2 22 7 78 10
125 4 47 8 101 10 120 2 19 6 80 10 135 3 55 8 123 10 150 7 82 15 195 20 285
9 138 15 221 20 280 2 30 7 98 10 150 3 53 8 111 10 129 3 19 7 75 10 125 4
50 8 111 10 136 2 25 6 81 10 125 3 44 7 103 9 130 3 28 7 91 11 140 11 171
17 247 30 430 3 33 7 96 10 140 7 102 15 205 21 275 2 30 7 89 9 130 3 41 7
100 10 130 8 94 18 249 30 455 3 50 7 110 10 135 3 25 7 86 11 135 3 50 7 110
10 135 2 25 6 74 9 110 10 148 17 235 19 237 1 1 28 -51 60 -115 98 -197 153
-303 256 -497 55 -103 83 -159 82 -165 0 -3 5 -12 12 -20 7 -8 26 -42 43 -75
46 -92 136 -262 262 -498 21 -39 72 -137 113 -217 73 -141 130 -249 218 -415
23 -44 52 -98 63 -120 12 -22 26 -46 31 -54 6 -7 11 -19 12 -27 1 -7 12 -27
23 -43 12 -16 21 -36 21 -44 0 -9 4 -17 8 -19 4 -1 25 -37 46 -78 21 -41 45
-83 54 -92 8 -10 12 -18 7 -18 -4 0 -2 -6 4 -13 6 -8 28 -47 49 -88 22 -41 53
-99 69 -129 16 -30 58 -109 93 -175 35 -66 79 -147 97 -180 19 -33 41 -76 51
-95 9 -19 19 -37 22 -40 3 -3 18 -30 33 -60 50 -99 102 -195 107 -200 3 -3 17
-28 31 -56 54 -105 132 -249 142 -261 5 -7 6 -13 1 -13 -5 0 -4 -4 2 -8 6 -4
20 -25 31 -47 11 -22 29 -56 40 -76 11 -19 44 -80 73 -135 29 -54 60 -112 70
-129 10 -16 40 -73 67 -125 28 -52 62 -115 75 -140 14 -25 45 -83 70 -130 43
-81 72 -135 155 -287 20 -38 51 -95 68 -129 50 -94 86 -158 97 -171 6 -7 7
-13 3 -13 -4 0 -3 -6 3 -13 10 -12 40 -66 99 -178 16 -30 34 -62 38 -70 5 -8
10 -20 11 -26 1 -7 9 -20 18 -29 9 -8 16 -19 16 -24 0 -4 16 -36 34 -69 19
-34 33 -61 30 -61 -3 0 0 -6 7 -12 6 -7 26 -40 44 -73 19 -33 58 -103 87 -155
29 -52 57 -104 61 -115 4 -11 11 -22 15 -25 4 -3 25 -32 46 -65 41 -62 136
-160 171 -177 30 -13 61 -32 79 -47 9 -7 16 -11 16 -7 0 4 17 -2 38 -12 61
-31 311 -109 372 -117 93 -11 136 -18 145 -25 18 -14 260 -4 291 12 17 8 64
15 112 16 166 4 425 74 555 149 106 62 202 130 233 165 21 23 37 33 58 33 41
-1 86 46 86 90 0 27 -41 127 -60 145 -4 4 -23 37 -54 95 -6 11 -13 22 -16 25
-6 6 -26 42 -49 85 -9 16 -19 32 -22 35 -3 3 -14 21 -25 40 -10 19 -24 42 -31
50 -6 8 -13 22 -15 30 -2 8 -10 22 -18 31 -8 10 -24 35 -35 56 -11 21 -22 40
-25 43 -5 5 -9 13 -52 89 -11 20 -29 48 -39 63 -11 14 -19 31 -19 37 0 6 -4
11 -10 11 -5 0 -10 9 -10 19 0 11 -4 21 -8 23 -11 4 -83 128 -75 128 4 0 0 6
-9 13 -8 6 -26 32 -39 57 -13 25 -28 48 -34 52 -7 5 -7 8 0 8 6 0 5 4 -1 8 -6
4 -20 23 -30 42 -11 19 -27 46 -35 60 -58 90 -209 351 -209 359 0 6 -4 11 -10
11 -5 0 -10 7 -10 15 0 8 -4 15 -10 15 -5 0 -9 3 -8 8 1 4 -5 19 -15 34 -9 16
-25 40 -34 55 -10 16 -28 48 -41 73 -14 25 -31 52 -38 61 -8 8 -14 19 -14 23
0 4 -7 14 -15 23 -8 8 -13 19 -10 24 4 5 1 9 -4 9 -6 0 -11 7 -11 15 0 8 -4
15 -10 15 -5 0 -10 9 -10 21 0 11 -4 17 -10 14 -6 -3 -10 0 -10 8 0 8 -11 30
-24 50 -13 19 -22 38 -18 41 3 3 1 6 -5 6 -5 0 -20 21 -33 48 -13 26 -30 53
-37 61 -8 7 -22 31 -31 52 -9 22 -20 39 -24 39 -5 0 -8 5 -8 11 0 6 -14 30
-30 55 -17 24 -28 44 -25 44 4 0 -1 7 -9 16 -9 8 -16 22 -16 30 0 8 -4 14 -10
14 -5 0 -10 4 -10 9 0 5 -18 39 -40 75 -22 36 -40 70 -40 76 0 5 -4 10 -8 10
-4 0 -20 24 -36 52 -42 81 -60 113 -67 118 -3 3 -20 32 -38 65 -18 33 -36 62
-40 65 -3 3 -12 16 -18 30 -17 34 -53 96 -86 147 -15 24 -27 45 -27 47 0 9
-65 111 -73 114 -4 2 -5 8 -1 13 3 5 0 9 -6 9 -6 0 -8 5 -5 10 3 6 2 10 -3 10
-4 0 -14 16 -22 35 -8 19 -17 35 -22 35 -4 0 -8 4 -8 10 0 5 -16 34 -35 64
-19 29 -31 56 -28 60 4 3 2 6 -3 6 -5 0 -21 21 -34 48 -14 26 -28 49 -31 52
-3 3 -16 25 -30 50 -13 25 -27 47 -31 48 -5 2 -8 9 -8 17 0 7 -7 18 -15 25 -8
6 -14 15 -12 18 1 4 -6 18 -14 32 -50 80 -99 162 -99 165 0 3 -16 29 -35 60
-20 30 -32 55 -28 55 4 0 -2 7 -13 15 -10 8 -15 15 -10 15 5 0 4 6 -2 13 -19
22 -171 279 -177 298 -4 10 -11 19 -16 19 -5 0 -9 9 -9 20 0 11 -3 20 -8 20
-4 0 -19 21 -32 48 -14 26 -28 49 -31 52 -3 3 -25 39 -49 80 -42 74 -148 251
-179 300 -8 14 -16 27 -16 30 0 3 -12 23 -26 45 -14 22 -52 85 -85 140 -32 55
-64 109 -71 120 -7 11 -18 31 -25 45 -7 14 -18 31 -25 38 -7 7 -13 20 -13 28
0 8 -4 14 -8 14 -5 0 -16 15 -25 33 -10 17 -28 50 -42 72 -13 22 -30 51 -37
65 -7 14 -16 27 -19 30 -4 3 -17 24 -29 48 -12 23 -26 45 -31 48 -5 3 -16 20
-24 37 -8 18 -19 39 -25 47 -38 58 -130 213 -130 221 0 5 -4 9 -8 9 -5 0 -14
12 -20 26 -7 14 -32 55 -56 92 -24 37 -44 71 -44 76 0 5 -5 12 -10 15 -5 3
-18 21 -28 38 -26 46 -176 265 -191 281 -15 16 -17 29 -4 34 12 4 87 156 134
268 58 141 117 330 117 376 0 27 13 73 36 126 47 107 45 102 104 248 28 69 55
134 59 145 15 35 32 76 118 290 47 116 90 221 96 235 6 14 11 27 12 30 11 32
45 113 55 132 6 10 10 23 10 29 0 6 6 25 14 42 8 18 33 79 56 137 23 58 48
119 55 135 32 76 50 120 51 125 0 3 6 19 13 35 7 17 37 93 68 170 30 77 61
154 68 170 7 17 50 122 95 235 45 113 90 224 101 247 10 24 19 49 19 56 0 7 4
17 8 23 5 5 15 25 22 44 7 19 21 53 30 75 23 55 104 259 106 265 0 3 6 16 12
30 6 14 41 99 77 190 36 91 70 174 74 185 5 11 19 45 31 75 11 30 25 64 30 75
5 11 52 128 104 260 52 132 100 254 107 270 7 17 13 32 14 35 3 9 25 65 34 85
5 11 21 52 36 90 15 39 34 84 41 100 7 17 47 118 89 225 43 107 92 231 111
275 18 44 72 177 119 295 48 118 91 224 95 235 18 38 131 320 134 330 1 6 7
19 13 30 6 11 11 22 11 25 1 12 181 456 262 645 4 11 23 56 40 100 18 44 38
94 45 110 7 17 27 66 44 110 18 44 36 89 41 100 5 11 23 56 40 100 18 44 36
89 41 100 4 11 60 148 123 305 62 157 140 348 171 425 108 266 142 350 150
370 5 11 7 23 7 28 -1 4 3 7 8 7 6 0 10 7 10 15 0 8 7 31 16 52 9 21 21 49 27
63 5 14 16 39 23 55 22 51 69 169 70 175 0 3 8 23 18 45 10 22 29 69 42 105
13 36 28 74 34 85 13 28 121 301 142 360 6 17 14 35 18 40 6 8 42 100 46 115
1 7 13 37 40 100 40 96 195 484 199 500 2 8 20 56 40 105 43 103 52 128 53
135 1 3 17 41 37 85 20 44 36 80 35 80 -1 0 5 18 14 40 10 22 49 119 87 215
38 96 74 184 79 195 5 11 32 79 61 150 28 72 56 144 64 160 35 82 78 187 79
195 1 5 21 56 41 105 7 17 21 50 30 75 9 25 22 56 28 70 6 14 11 28 11 32 1 3
4 10 9 14 4 4 7 16 7 26 0 10 5 18 12 18 6 0 9 3 6 6 -4 3 13 49 37 102 50
113 56 139 62 247 12 219 12 219 -58 334 -21 35 -81 96 -108 111 -27 14 -151
51 -151 45 0 -3 -12 0 -27 6 -33 14 -319 18 -383 7z"/>
</g>
</svg>
